<svg width="70" height="70" viewBox="0 0 70 70" fill="none" xmlns="http://www.w3.org/2000/svg">
<circle cx="35" cy="35" r="35" fill="#C4C4C4"/>
<path d="M53.8438 16.625H50.4688V15.2188C50.4688 12.8925 48.5762 11 46.25 11C43.9238 11 42.0312 12.8925 42.0312 15.2188V16.625H27.9688V15.2188C27.9688 12.8925 26.0762 11 23.75 11C21.4238 11 19.5312 12.8925 19.5312 15.2188V16.625H16.1562C13.3131 16.625 11 18.9381 11 21.7812V53.8438C11 56.6869 13.3131 59 16.1562 59H53.8438C56.6869 59 59 56.6869 59 53.8438V21.7812C59 18.9381 56.6869 16.625 53.8438 16.625ZM44.8438 15.2188C44.8438 14.4433 45.4746 13.8125 46.25 13.8125C47.0254 13.8125 47.6562 14.4433 47.6562 15.2188V20.8438C47.6562 21.6192 47.0254 22.25 46.25 22.25C45.4746 22.25 44.8438 21.6192 44.8438 20.8438V15.2188ZM22.3438 15.2188C22.3438 14.4433 22.9746 13.8125 23.75 13.8125C24.5254 13.8125 25.1562 14.4433 25.1562 15.2188V20.8438C25.1562 21.6192 24.5254 22.25 23.75 22.25C22.9746 22.25 22.3438 21.6192 22.3438 20.8438V15.2188ZM13.8125 21.7812C13.8125 20.4889 14.8639 19.4375 16.1562 19.4375H19.5312V20.8438C19.5312 23.17 21.4238 25.0625 23.75 25.0625C26.0762 25.0625 27.9688 23.17 27.9688 20.8438V19.4375H42.0312V20.8438C42.0312 23.17 43.9238 25.0625 46.25 25.0625C48.5762 25.0625 50.4688 23.17 50.4688 20.8438V19.4375H53.8438C55.1361 19.4375 56.1875 20.4889 56.1875 21.7812V28.0625H13.8125V21.7812ZM56.1875 53.8438C56.1875 55.1361 55.1361 56.1875 53.8438 56.1875H16.1562C14.8639 56.1875 13.8125 55.1361 13.8125 53.8438V30.875H56.1875V53.8438Z" fill="black" fill-opacity="0.3"/>
<path d="M39.7593 36.5H41.9599V51.9688C41.9599 52.7454 42.5895 53.375 43.3661 53.375C44.1427 53.375 44.7724 52.7454 44.7724 51.9688V35.0938C44.7724 34.3171 44.1427 33.6875 43.3661 33.6875H39.7593C38.9827 33.6875 38.353 34.3171 38.353 35.0938C38.353 35.8704 38.9826 36.5 39.7593 36.5Z" fill="black" fill-opacity="0.3"/>
<path d="M30.853 50.5625C29.4575 50.5625 28.2601 49.5228 28.0677 48.1441C28.0497 48.0149 28.0405 47.8824 28.0405 47.75C28.0405 46.9734 27.4109 46.3438 26.6343 46.3438C25.8577 46.3438 25.228 46.9734 25.228 47.75C25.228 48.0118 25.2462 48.2753 25.2821 48.5328C25.6673 51.2933 28.0623 53.375 30.853 53.375C33.9547 53.375 36.478 50.8516 36.478 47.75C36.478 46.0711 35.7378 44.5628 34.5677 43.5312C35.7378 42.4997 36.478 40.9914 36.478 39.3125C36.478 36.2109 33.9547 33.6875 30.853 33.6875C28.1711 33.6875 25.8499 35.5953 25.3336 38.2238C25.1839 38.9859 25.6804 39.725 26.4425 39.8747C27.2037 40.0243 27.9436 39.5279 28.0933 38.7658C28.3512 37.453 29.5118 36.5 30.853 36.5C32.4038 36.5 33.6655 37.7617 33.6655 39.3125C33.6655 40.8633 32.4038 42.125 30.853 42.125C30.0764 42.125 29.4468 42.7546 29.4468 43.5312C29.4468 44.3079 30.0764 44.9375 30.853 44.9375C32.4038 44.9375 33.6655 46.1992 33.6655 47.75C33.6655 49.3008 32.4038 50.5625 30.853 50.5625Z" fill="black" fill-opacity="0.3"/>
</svg>
