<svg width="70" height="70" viewBox="0 0 70 70" fill="none" xmlns="http://www.w3.org/2000/svg">
<circle cx="35" cy="35" r="35" fill="#C4C4C4"/>
<path d="M35 61C21.7662 61 11 50.2338 11 37C11 23.7662 21.7662 13 35 13C48.2338 13 59 23.7662 59 37C59 50.2338 48.2338 61 35 61Z" fill="#BAB5B6"/>
<path d="M35 13V61C48.2338 61 59 50.2338 59 37C59 23.7662 48.2338 13 35 13Z" fill="#BAB5B6"/>
<path d="M35 53.0312C26.1604 53.0312 18.9688 45.8396 18.9688 37C18.9688 28.1604 26.1604 20.9688 35 20.9688C43.8396 20.9688 51.0312 28.1604 51.0312 37C51.0312 45.8396 43.8396 53.0312 35 53.0312Z" fill="#D9E7F3"/>
<path d="M35 44.5938C30.8127 44.5938 27.4062 41.1873 27.4062 37C27.4062 32.8127 30.8127 29.4062 35 29.4062C39.1873 29.4062 42.5938 32.8127 42.5938 37C42.5938 41.1873 39.1873 44.5938 35 44.5938Z" fill="#BAB5B6"/>
<path d="M35 29.4062V44.5938C39.1873 44.5938 42.5938 41.1873 42.5938 37C42.5938 32.8127 39.1873 29.4062 35 29.4062Z" fill="#BAB5B6"/>
<path d="M35 38.4061C34.64 38.4061 34.28 38.2688 34.0057 37.9941C33.4564 37.4452 33.4564 36.5546 34.0057 36.0056L44.3472 25.6642C44.8961 25.1149 45.7867 25.1149 46.3357 25.6642C46.885 26.2131 46.885 27.1034 46.3357 27.6527L35.9943 37.9941C35.72 38.2688 35.36 38.4061 35 38.4061Z" fill="#2D2D55"/>
<path d="M46.3358 25.6643L34.0059 37.9943C34.2802 38.2689 34.6401 38.4062 35.0001 38.4062C35.3601 38.4062 35.7201 38.2689 35.9944 37.9943L46.3358 27.6528C46.8851 27.1039 46.8851 26.2133 46.3358 25.6643Z" fill="#0A0A48"/>
<path d="M50.844 28.529C50.8048 28.529 50.7652 28.5271 50.7257 28.5242L45.2237 28.0602C44.5404 28.0024 43.998 27.4604 43.9405 26.777L43.4762 21.2747C43.4414 20.862 43.5904 20.4551 43.8834 20.1621L49.8493 14.1962C50.2364 13.8091 50.8128 13.6817 51.327 13.8699C51.8408 14.0578 52.1989 14.5269 52.2451 15.0722L52.6091 19.3909L56.9282 19.7553C57.4735 19.8014 57.9426 20.1596 58.1308 20.6737C58.3187 21.1875 58.1913 21.764 57.8042 22.151L51.8382 28.117C51.5735 28.3817 51.2153 28.529 50.844 28.529Z" fill="#E4E4E4"/>
<path d="M56.928 19.755L52.6093 19.3906L44.3472 27.6527C44.5753 27.8809 44.8815 28.031 45.2231 28.0599L50.7255 28.5239C50.765 28.5269 50.8042 28.5287 50.8438 28.5287C51.2151 28.5287 51.5733 28.3815 51.838 28.1167L57.804 22.1508C58.1911 21.7637 58.3185 21.1873 58.1306 20.6731C57.9424 20.1593 57.4733 19.8011 56.928 19.755Z" fill="#B6B2B3" fill-opacity="0.55"/>
</svg>
