<svg width="70" height="70" viewBox="0 0 70 70" fill="none" xmlns="http://www.w3.org/2000/svg">
<circle cx="35" cy="35" r="35" fill="#C2DEFF"/>
<g clip-path="url(#clip0)">
<path d="M44.0347 45.5356L39.2072 40.2592V33.8406H30.7895V40.2612L26.0156 45.5356H44.0347Z" fill="#FFDDCE"/>
<path d="M48.6588 43.0339L41.622 40.968L35.0003 48.5607L28.3798 40.9686L21.3424 43.0341C18.5954 43.8403 16.7085 46.3606 16.7085 49.2235V56.0142C16.7085 57.2749 17.7305 58.2969 18.9912 58.2969H51.0094C52.2701 58.2969 53.2921 57.2749 53.2921 56.0142V49.2231C53.2922 46.3604 51.4055 43.8402 48.6588 43.0339Z" fill="#407093"/>
<path d="M48.6587 43.0339L41.6219 40.968L38.3506 44.7191L42.7221 46.0026C45.4687 46.8089 47.3555 49.3291 47.3555 52.1918V58.2969H51.0094C52.2701 58.2969 53.2921 57.2748 53.2921 56.0142V49.2231C53.2921 46.3604 51.4054 43.8402 48.6587 43.0339Z" fill="#365E7D"/>
<path d="M22.0125 25.4617L21.2917 24.6667H19.751L19.0303 25.4617L18.0803 31.0374C17.9907 31.5637 18.3962 32.0441 18.93 32.0441H22.1127C22.6466 32.0441 23.0521 31.5637 22.9624 31.0374L22.0125 25.4617Z" fill="#E4F6FF"/>
<path d="M38.8961 16.4907H38.741H31.2572H31.1022C28.2846 16.4907 26.0005 18.7748 26.0005 21.5924V21.6728V27.2566H43.9978V21.6728V21.5924C43.9978 18.7748 41.7136 16.4907 38.8961 16.4907Z" fill="#EFC984"/>
<path d="M38.8966 16.4907H38.7415H38.0811V27.2566H43.9983V21.6728V21.5924C43.9983 18.7748 41.7141 16.4907 38.8966 16.4907Z" fill="#EABC6B"/>
<path d="M42.4675 26.5134C41.6156 26.5134 40.925 25.8229 40.925 24.9709V22.626H29.0761V24.9709C29.0761 25.8229 28.3855 26.5134 27.5336 26.5134H26.002V29.0358C26.002 29.6803 26.5244 30.2028 27.169 30.2028C27.3723 30.2028 27.5378 30.362 27.5506 30.565C27.7967 34.4665 31.0371 37.5551 35.0006 37.5551C38.9642 37.5551 42.2046 34.4664 42.4507 30.565C42.4635 30.362 42.629 30.2028 42.8323 30.2028C43.4769 30.2028 43.9993 29.6803 43.9993 29.0358V26.5134H42.4675Z" fill="#FFDDCE"/>
<path d="M42.4674 26.5134C41.6155 26.5134 40.9249 25.8229 40.9249 24.9709V22.626H38.0804V31.3073C37.9514 33.9893 36.408 36.2992 34.1802 37.5089C34.4497 37.5383 34.723 37.555 35.0004 37.555C38.964 37.555 42.2043 34.4664 42.4504 30.5649C42.4633 30.3619 42.6287 30.2027 42.8321 30.2027C43.4766 30.2027 43.9991 29.6802 43.9991 29.0357V26.5133H42.4674V26.5134Z" fill="#FFCBBE"/>
<path d="M34.7578 11.7409L20.4984 16.2764C19.703 16.5294 19.7832 17.6802 20.6062 17.8204L34.9992 20.2717L49.3922 17.8203C50.215 17.6801 50.2953 16.5293 49.4999 16.2763L35.2405 11.7408C35.0835 11.6909 34.9149 11.6909 34.7578 11.7409Z" fill="#407093"/>
<path d="M43.8874 22.8481H26.1139C25.7328 22.8481 25.4238 22.5391 25.4238 22.158V18.6409L33.3163 17.6643C34.4339 17.526 35.5644 17.526 36.6821 17.6642L44.5775 18.6409V22.158C44.5775 22.5391 44.2685 22.8481 43.8874 22.8481Z" fill="#4A80AA"/>
<path d="M49.5004 16.2764L36.5508 12.1575V16.2842C36.5508 17.1319 37.2349 17.8194 38.0811 17.826V19.7469L49.3927 17.8203C50.2156 17.6802 50.2958 16.5294 49.5004 16.2764Z" fill="#365E7D"/>
<path d="M38.0811 17.8372V22.848H43.8878C44.2689 22.848 44.5779 22.539 44.5779 22.1579V18.6408L38.0811 17.8372Z" fill="#407093"/>
<path d="M22.0125 25.4618H19.0303V23.5042C19.0303 23.0882 19.3675 22.751 19.7835 22.751H21.2594C21.6753 22.751 22.0126 23.0882 22.0126 23.5042V25.4618H22.0125Z" fill="#FFE07D"/>
<path d="M39.2078 37.9094C39.2078 40.6403 38.415 43.3123 36.9259 45.6013L35.0005 48.5607L45.7425 42.1777L39.2078 37.9094Z" fill="#4A80AA"/>
<path d="M30.793 37.9094C30.793 40.6403 31.5857 43.3123 33.0748 45.6013L35.0003 48.5607L24.2583 42.1777L30.793 37.9094Z" fill="#4A80AA"/>
<path d="M38.5859 42.0447C37.4811 42.2879 36.2704 42.4228 35.0002 42.4228C33.73 42.4228 32.5193 42.2879 31.4146 42.0447C31.7981 43.2952 32.354 44.4934 33.0749 45.6013L35.0002 48.5607L36.9255 45.6013C37.6464 44.4934 38.2023 43.2953 38.5859 42.0447Z" fill="#F4FBFF"/>
<path d="M48.8568 42.3593L46.0397 41.5321L39.9107 37.5289V36.6117C41.6852 35.2732 42.9038 33.2273 43.1303 30.8821C44.0202 30.7389 44.7021 29.9656 44.7021 29.0359V26.5136C44.7021 26.5038 44.701 26.4943 44.7006 26.4845V23.2893C45.0551 23.0355 45.2801 22.6219 45.2801 22.1581V19.234L49.5098 18.5135C50.205 18.3951 50.7049 17.843 50.754 17.1396C50.8029 16.4362 50.3845 15.8201 49.7126 15.6064L35.4535 11.071C35.156 10.9763 34.8417 10.9764 34.5443 11.0709L20.2851 15.6064C19.6132 15.8201 19.1947 16.4362 19.2437 17.1395C19.2748 17.5864 19.4884 17.9717 19.818 18.2241V22.0479H19.7831C18.9802 22.0479 18.3269 22.7011 18.3269 23.5041V25.4022L17.3869 30.9196C17.2244 31.8738 17.9594 32.7473 18.9297 32.7473H22.1124C23.0806 32.7473 23.8181 31.8759 23.6553 30.9195L22.7152 25.4022V23.5041C22.7152 22.7011 22.062 22.0479 21.259 22.0479H21.2242V18.6389L24.7206 19.2344V22.1581C24.7206 22.62 24.9445 23.0328 25.2974 23.2871L25.2987 26.5139V29.0359C25.2987 29.9656 25.9806 30.7389 26.8705 30.8821C27.0969 33.226 28.3142 35.271 30.087 36.6095V37.5311L23.9593 41.5336L21.1445 42.3598C18.1324 43.2438 16.0056 46.0092 16.0056 49.2237V51.3192C16.0056 51.7075 16.3203 52.0223 16.7087 52.0223C17.0971 52.0223 17.4118 51.7076 17.4118 51.3192V49.2237C17.4118 46.6902 19.1095 44.4225 21.5406 43.709L24.1633 42.9391L34.6414 49.1654C34.8541 49.2917 35.1355 49.2985 35.3597 49.1654L45.8384 42.9388L48.4609 43.7086C50.8915 44.4223 52.5893 46.6899 52.5893 49.2232V56.0143C52.5893 56.8853 51.8806 57.594 51.0096 57.594H47.9105V54.5632C47.9105 54.1749 47.5958 53.8601 47.2073 53.8601C46.819 53.8601 46.5042 54.1748 46.5042 54.5632V57.594H23.4935V54.5632C23.4935 54.1749 23.1787 53.8601 22.7903 53.8601C22.4019 53.8601 22.0872 54.1748 22.0872 54.5632V57.594H18.9913C18.1203 57.594 17.4116 56.8853 17.4116 56.0143V54.606C17.4116 54.2176 17.0969 53.9028 16.7085 53.9028C16.3201 53.9028 16.0054 54.2176 16.0054 54.606V56.0142C16.0054 57.6606 17.3448 59 18.9912 59H51.0094C52.6558 59 53.9952 57.6606 53.9952 56.0142V49.2231C53.9952 46.0844 51.941 43.2648 48.8568 42.3593ZM22.1123 31.3411H18.9297C18.8314 31.3411 18.7564 31.2532 18.7731 31.1556L19.6234 26.1647H21.4187L22.269 31.1555C22.2856 31.2529 22.2112 31.3411 22.1123 31.3411ZM21.309 23.5041V24.7586H19.733V23.5041C19.733 23.4765 19.7554 23.4541 19.783 23.4541H21.2588C21.2866 23.454 21.309 23.4765 21.309 23.5041ZM32.4857 45.9848L32.7655 46.4149L25.5872 42.1496L30.1435 39.1735C30.3502 41.5979 31.1493 43.9308 32.4857 45.9848ZM32.4808 42.9496C34.1358 43.1848 35.864 43.185 37.5199 42.9496C37.1999 43.737 36.8056 44.4967 36.3364 45.218L35.0003 47.2715L33.6643 45.218C33.1951 44.4967 32.8008 43.737 32.4808 42.9496ZM37.515 45.9848C38.8514 43.9308 39.6505 41.5979 39.8571 39.1735L44.4134 42.1495L37.2352 46.4149L37.515 45.9848ZM41.6279 23.5512H43.2944V25.8104H42.4673C42.0044 25.8104 41.6278 25.4339 41.6278 24.971V23.5512H41.6279ZM20.7112 16.9465L34.9707 12.4109C34.989 12.4051 35.0087 12.405 35.0273 12.411L49.2866 16.9465C49.3161 16.9559 49.3565 16.9686 49.3513 17.0418C49.3462 17.115 49.3044 17.122 49.2739 17.1272L44.5594 17.9302L42.7894 17.7113C42.4043 17.6636 42.0531 17.9375 42.0053 18.3228C41.9577 18.7082 42.2316 19.0592 42.6169 19.1069L43.8741 19.2624V22.145L26.1267 22.1444V19.2623L33.4024 18.362C34.4621 18.2311 35.5365 18.2311 36.5955 18.362L39.3492 18.7026C39.7345 18.7503 40.0856 18.4765 40.1333 18.0912C40.1811 17.7058 39.9072 17.3548 39.5219 17.3071L36.7682 16.9665C35.5947 16.8212 34.4041 16.8212 33.2298 16.9665L25.4397 17.9304L20.7238 17.1272C20.6932 17.122 20.6515 17.115 20.6464 17.0418C20.6413 16.9686 20.6817 16.9558 20.7112 16.9465ZM26.7045 25.8104L26.7036 23.5512H28.3728V24.9711C28.3728 25.4339 27.9963 25.8105 27.5333 25.8105H26.7045V25.8104ZM28.252 30.5207C28.2158 29.9482 27.74 29.4997 27.1687 29.4997C26.9129 29.4997 26.7048 29.2916 26.7048 29.0358V27.2166H27.5333C28.7715 27.2166 29.7789 26.2093 29.7789 24.9711V23.5512H40.2217V24.9711C40.2217 26.2093 41.2291 27.2166 42.4673 27.2166H43.2958V29.0358C43.2958 29.2916 43.0877 29.4997 42.8318 29.4997C42.2606 29.4997 41.7848 29.9482 41.7486 30.5208C41.5246 34.0711 38.5604 36.8521 35.0002 36.8521C31.4401 36.8521 28.476 34.0711 28.252 30.5207ZM35.0003 38.2583C36.2509 38.2583 37.4394 37.9724 38.5045 37.464V37.9096C38.5045 39.1117 38.3423 40.2976 38.0301 41.4413C36.1192 41.8056 33.959 41.8203 31.9706 41.4413C31.6583 40.2976 31.4962 39.1118 31.4962 37.9096C31.4962 37.8946 31.4941 37.8801 31.4932 37.8654C31.493 37.8625 31.4932 37.8596 31.4931 37.8567V37.4626C32.5589 37.9718 33.7486 38.2583 35.0003 38.2583Z" fill="black"/>
</g>
<defs>
<clipPath id="clip0">
<rect width="48" height="48" fill="white" transform="translate(11 11)"/>
</clipPath>
</defs>
</svg>
