<svg width="70" height="70" viewBox="0 0 70 70" fill="none" xmlns="http://www.w3.org/2000/svg">
<circle cx="35" cy="35" r="35" fill="#C2DEFF"/>
<path d="M57.2383 53.2617C58.3371 54.3595 58.3371 56.1408 57.2383 57.2386C56.689 57.7879 55.9699 58.0626 55.2499 58.0626C54.5299 58.0626 53.8108 57.7879 53.2615 57.2386L44.208 48.1851C45.6864 47.0226 47.0224 45.6867 48.1849 44.2083L57.2383 53.2617Z" fill="#4DBBEB"/>
<path d="M44.1712 40.1946L48.1847 44.208C47.0222 45.6865 45.6862 47.0224 44.2078 48.1849L40.1943 44.1715V44.1705C41.7196 43.0633 43.0631 41.7199 44.1703 40.1946H44.1712Z" fill="#FFF5CD"/>
<path d="M47.5625 29.75C47.5625 33.6481 46.3034 37.2584 44.1706 40.1947C43.0634 41.72 41.72 43.0634 40.1947 44.1706C37.2584 46.3034 33.6481 47.5625 29.75 47.5625C19.9278 47.5625 11.9375 39.5722 11.9375 29.75C11.9375 19.9278 19.9278 11.9375 29.75 11.9375C39.5722 11.9375 47.5625 19.9278 47.5625 29.75Z" fill="#4DBBEB"/>
<path d="M29.75 15.6875C37.5041 15.6875 43.8125 21.9959 43.8125 29.75C43.8125 37.5041 37.5041 43.8125 29.75 43.8125C21.9959 43.8125 15.6875 37.5041 15.6875 29.75C15.6875 21.9959 21.9959 15.6875 29.75 15.6875Z" fill="#BEE7F4"/>
<path d="M57.9013 52.5987L45.3876 40.0849C47.4262 37.0142 48.5 33.4583 48.5 29.75C48.5 19.4113 40.0887 11 29.75 11C19.4113 11 11 19.4113 11 29.75C11 40.0887 19.4113 48.5 29.75 48.5C33.4584 48.5 37.0143 47.4261 40.0849 45.3877L43.5438 48.8466C43.5443 48.8471 43.5448 48.8475 43.5453 48.8481L52.5986 57.9013C53.3071 58.6098 54.2487 59 55.25 59C56.2513 59 57.1929 58.6098 57.9011 57.9016C58.6097 57.1935 59 56.2519 59 55.25C59 54.2481 58.6097 53.3065 57.9013 52.5987ZM41.6109 44.2618C42.5812 43.4681 43.4682 42.5811 44.2618 41.6109L46.9216 44.2707C46.1128 45.2253 45.2253 46.1128 44.2707 46.9216L41.6109 44.2618ZM12.875 29.75C12.875 20.4451 20.4451 12.875 29.75 12.875C39.0549 12.875 46.625 20.4451 46.625 29.75C46.625 33.3289 45.514 36.75 43.412 39.6439C42.3604 41.0926 41.0927 42.3604 39.644 43.4119C39.644 43.412 39.6439 43.412 39.6438 43.4121C36.75 45.514 33.3289 46.625 29.75 46.625C20.4451 46.625 12.875 39.0549 12.875 29.75ZM56.5755 56.5755C56.2212 56.9299 55.7504 57.125 55.25 57.125C54.7496 57.125 54.2788 56.9299 53.9245 56.5755L45.5999 48.251C46.5493 47.4362 47.4362 46.5494 48.2509 45.6L56.5757 53.9248C56.9299 54.2787 57.125 54.7492 57.125 55.25C57.125 55.7508 56.9299 56.2213 56.5755 56.5755Z" fill="black"/>
<path d="M44.75 29.75C44.75 21.4789 38.0211 14.75 29.75 14.75C21.4789 14.75 14.75 21.4789 14.75 29.75C14.75 38.0211 21.4789 44.75 29.75 44.75C38.0211 44.75 44.75 38.0211 44.75 29.75ZM29.75 42.875C22.5129 42.875 16.625 36.9871 16.625 29.75C16.625 22.5129 22.5129 16.625 29.75 16.625C36.9871 16.625 42.875 22.5129 42.875 29.75C42.875 36.9871 36.9871 42.875 29.75 42.875Z" fill="black"/>
<path d="M39.7172 26.937C40.2005 26.7513 40.4418 26.209 40.2561 25.7256C39.4488 23.6245 38.0432 21.828 36.1911 20.5306C34.2949 19.2022 32.0676 18.5 29.75 18.5C29.2323 18.5 28.8125 18.9198 28.8125 19.4375C28.8125 19.9552 29.2323 20.375 29.75 20.375C33.603 20.375 37.1217 22.7954 38.5059 26.3982C38.6491 26.7709 39.0044 26.9997 39.3812 26.9997C39.493 26.9997 39.6067 26.9795 39.7172 26.937Z" fill="black"/>
<path d="M40.0625 28.8125C39.545 28.8125 39.125 29.2325 39.125 29.75C39.125 30.2675 39.545 30.6875 40.0625 30.6875C40.58 30.6875 41 30.2675 41 29.75C41 29.2325 40.58 28.8125 40.0625 28.8125Z" fill="black"/>
</svg>
