<svg width="70" height="70" viewBox="0 0 70 70" fill="none" xmlns="http://www.w3.org/2000/svg">
<circle cx="35" cy="35" r="35" fill="#C4C4C4"/>
<path d="M35 11.7031V58.2969C47.8665 58.2969 58.2969 47.8665 58.2969 35C58.2969 22.1335 47.8665 11.7031 35 11.7031Z" fill="white"/>
<path d="M55.4844 35C55.4844 22.1335 46.3132 11.7031 35 11.7031C22.1335 11.7031 11.7031 22.1335 11.7031 35C11.7031 41.3709 14.2614 47.1434 18.4054 51.3493C17.5906 52.9692 16.2072 54.2539 14.5156 54.9387C15.3842 55.2903 16.3334 55.4844 17.3281 55.4844C18.9441 55.4844 20.4398 54.9723 21.6641 54.103C25.4422 56.7454 30.0396 58.2969 35 58.2969C46.3132 58.2969 55.4844 47.8665 55.4844 35Z" fill="#E3E3E3"/>
<path d="M26.5625 33.172L22.6892 32.5886L20.9375 29.0852L19.1858 32.5886L15.3125 33.172L18.1032 35.9206L17.4611 39.7846L20.9375 37.9798L24.4139 39.7846L23.7718 35.9206L26.5625 33.172Z" fill="white"/>
<path d="M54.6875 33.172L50.8142 32.5886L49.0625 29.0852L47.3108 32.5886L43.4375 33.172L46.2282 35.9206L45.5861 39.7846L49.0625 37.9798L52.5389 39.7846L51.8968 35.9206L54.6875 33.172Z" fill="white"/>
<path d="M40.625 33.172L36.7517 32.5886L35 29.0852L33.2483 32.5886L29.375 33.172L32.1657 35.9206L31.5236 39.7846L35 37.9798L38.4764 39.7846L37.8343 35.9206L40.625 33.172Z" fill="white"/>
<path d="M51.9706 18.0294C47.4376 13.4965 41.4106 11 35 11C29.1284 11 23.4766 13.1441 19.0856 17.0371C18.795 17.2948 18.7683 17.7391 19.0259 18.0297C19.2836 18.3203 19.7278 18.347 20.0185 18.0893C24.1521 14.4246 29.4726 12.4062 35 12.4062C47.4583 12.4062 57.5938 22.5417 57.5938 35C57.5938 47.4583 47.4583 57.5938 35 57.5938C30.3433 57.5938 25.8712 56.1874 22.0671 53.5268C21.8236 53.3565 21.4993 53.3576 21.257 53.5297C20.1039 54.3485 18.7453 54.7812 17.3281 54.7812C17.0121 54.7812 16.6993 54.7599 16.3903 54.7172C17.5026 53.9419 18.4142 52.8964 19.0335 51.6651C19.1689 51.3958 19.1177 51.0703 18.9062 50.8557C14.7147 46.6016 12.4062 40.9706 12.4062 35C12.4062 29.4726 14.4246 24.152 18.0895 20.0185C18.3471 19.7279 18.3204 19.2836 18.0298 19.0259C17.7392 18.7682 17.2948 18.795 17.0373 19.0856C13.1441 23.4765 11 29.1284 11 35C11 41.1673 13.3183 46.9932 17.5403 51.465C16.7814 52.7368 15.6291 53.7294 14.2518 54.2869C13.9863 54.3943 13.8125 54.6522 13.8125 54.9387C13.8125 55.2251 13.9863 55.4829 14.2518 55.5904C15.2305 55.9866 16.2655 56.1875 17.3281 56.1875C18.8725 56.1875 20.3593 55.7616 21.6584 54.9512C25.6125 57.6016 30.2147 59 35 59C41.4106 59 47.4376 56.5035 51.9706 51.9706C56.5035 47.4375 59 41.4106 59 35C59 28.5894 56.5035 22.5625 51.9706 18.0294Z" fill="#C4C4C4"/>
<path d="M27.2313 32.9547C27.1489 32.7014 26.9306 32.5164 26.6673 32.4767L23.1549 31.9477L21.5664 28.7708C21.4473 28.5325 21.2039 28.3821 20.9375 28.3821C20.6712 28.3821 20.4277 28.5325 20.3087 28.7708L18.7202 31.9477L15.2078 32.4767C14.9445 32.5164 14.7261 32.7014 14.6438 32.9547C14.5615 33.208 14.6294 33.486 14.8191 33.673L17.3497 36.1654L16.7674 39.6693C16.7238 39.932 16.8323 40.1968 17.0478 40.3534C17.263 40.5099 17.5485 40.5312 17.785 40.4086L19.8552 39.3339C20.1998 39.155 20.3342 38.7305 20.1553 38.3859C19.9764 38.0412 19.5519 37.9071 19.2073 38.0858L18.3852 38.5125L18.7968 36.0358C18.8343 35.8101 18.7596 35.5802 18.5965 35.4196L16.8078 33.6578L19.2904 33.2839C19.5168 33.2498 19.7123 33.1077 19.8146 32.903L20.9375 30.6575L22.0604 32.9031C22.1627 33.1078 22.3582 33.2499 22.5845 33.284L25.0672 33.6579L23.2785 35.4197C23.1154 35.5803 23.0407 35.8102 23.0782 36.0359L23.4898 38.5126L22.6677 38.0859C22.3231 37.907 21.8986 38.0413 21.7197 38.386C21.5408 38.7306 21.6752 39.1551 22.0198 39.334L24.09 40.4087C24.192 40.4617 24.3031 40.4877 24.4139 40.4877C24.5598 40.4877 24.7048 40.4425 24.8272 40.3534C25.0427 40.1969 25.1512 39.932 25.1075 39.6693L24.5253 36.1654L27.0558 33.673C27.2457 33.4861 27.3136 33.208 27.2313 32.9547Z" fill="#C4C4C4"/>
<path d="M55.3563 32.9547C55.2739 32.7014 55.0556 32.5164 54.7923 32.4767L51.2799 31.9477L49.6914 28.7708C49.5723 28.5325 49.3289 28.3821 49.0625 28.3821C48.7962 28.3821 48.5527 28.5325 48.4337 28.7708L46.8452 31.9477L43.3328 32.4767C43.0695 32.5164 42.8511 32.7014 42.7688 32.9547C42.6865 33.208 42.7544 33.486 42.9441 33.673L45.4747 36.1654L44.8924 39.6693C44.8488 39.932 44.9572 40.1968 45.1728 40.3534C45.388 40.5099 45.6735 40.5312 45.9099 40.4086L47.9802 39.3339C48.3248 39.155 48.4592 38.7305 48.2802 38.3859C48.1012 38.0411 47.6766 37.907 47.3322 38.0858L46.5101 38.5125L46.9218 36.0358C46.9593 35.8101 46.8846 35.5802 46.7215 35.4196L44.9328 33.6578L47.4153 33.2839C47.6416 33.2498 47.8371 33.1077 47.9395 32.903L49.0625 30.6574L50.1855 32.9031C50.2878 33.1078 50.4834 33.2499 50.7096 33.284L53.1922 33.6579L51.4035 35.4197C51.2404 35.5803 51.1657 35.8102 51.2032 36.0359L51.6149 38.5126L50.7928 38.0859C50.4481 37.907 50.0237 38.0412 49.8448 38.386C49.6658 38.7306 49.8002 39.1551 50.1448 39.334L52.2151 40.4087C52.3171 40.4617 52.4282 40.4877 52.5389 40.4877C52.6848 40.4877 52.8299 40.4425 52.9522 40.3534C53.1678 40.1969 53.2762 39.932 53.2325 39.6693L52.6503 36.1654L55.1808 33.673C55.3707 33.4861 55.4386 33.208 55.3563 32.9547Z" fill="#C4C4C4"/>
<path d="M41.2938 32.9547C41.2114 32.7014 40.9931 32.5164 40.7298 32.4767L37.2174 31.9477L35.6289 28.7708C35.5098 28.5325 35.2664 28.3821 35 28.3821C34.7337 28.3821 34.4902 28.5325 34.3712 28.7708L32.7827 31.9477L29.2703 32.4767C29.007 32.5164 28.7886 32.7014 28.7063 32.9547C28.624 33.208 28.6919 33.486 28.8816 33.673L31.4122 36.1654L30.8299 39.6693C30.7863 39.932 30.8948 40.1968 31.1103 40.3534C31.3255 40.5099 31.611 40.5312 31.8475 40.4086L33.9177 39.3339C34.2623 39.155 34.3967 38.7305 34.2178 38.3859C34.0389 38.0412 33.6145 37.9071 33.2698 38.0858L32.4477 38.5125L32.8593 36.0358C32.8968 35.8101 32.8221 35.5802 32.659 35.4196L30.8703 33.6578L33.3529 33.2839C33.5793 33.2498 33.7748 33.1077 33.8771 32.903L35 30.6574L36.123 32.9031C36.2253 33.1078 36.4209 33.2499 36.6471 33.284L39.1297 33.6579L37.341 35.4197C37.1779 35.5803 37.1032 35.8102 37.1407 36.0359L37.5524 38.5126L36.7303 38.0859C36.3856 37.907 35.9612 38.0412 35.7823 38.386C35.6033 38.7306 35.7377 39.1551 36.0823 39.334L38.1526 40.4087C38.2546 40.4617 38.3657 40.4877 38.4764 40.4877C38.6223 40.4877 38.7674 40.4425 38.8897 40.3534C39.1053 40.1969 39.2137 39.932 39.17 39.6693L38.5878 36.1654L41.1183 33.673C41.3082 33.4861 41.3761 33.208 41.2938 32.9547Z" fill="#C4C4C4"/>
</svg>
