<svg width="15" height="14" viewBox="0 0 15 14" fill="none" xmlns="http://www.w3.org/2000/svg">
<path d="M14.9609 5.43208C14.8627 5.12834 14.5933 4.91262 14.2746 4.88389L9.94517 4.49078L8.2332 0.483754C8.10697 0.190091 7.81949 0 7.50008 0C7.18066 0 6.89318 0.190091 6.76695 0.484441L5.05498 4.49078L0.724885 4.88389C0.406732 4.9133 0.138017 5.12834 0.0392524 5.43208C-0.0595127 5.73581 0.0316991 6.06896 0.272374 6.27896L3.5449 9.14898L2.57991 13.3998C2.50929 13.7123 2.6306 14.0354 2.88993 14.2229C3.02933 14.3236 3.19241 14.3748 3.35687 14.3748C3.49866 14.3748 3.63931 14.3366 3.76554 14.2611L7.50008 12.0291L11.2332 14.2611C11.5064 14.4254 11.8508 14.4104 12.1095 14.2229C12.369 14.0348 12.4902 13.7116 12.4196 13.3998L11.4546 9.14898L14.7271 6.27953C14.9678 6.06896 15.0597 5.73638 14.9609 5.43208Z" fill="#FFC107"/>
</svg>
