<svg width="70" height="70" viewBox="0 0 70 70" fill="none" xmlns="http://www.w3.org/2000/svg">
<circle cx="35" cy="35" r="35" fill="#C4C4C4"/>
<g clip-path="url(#clip0)">
<path d="M11.5439 54.8103L12.1662 56.2108L34.494 46.9527L38.3838 47.4196L39.784 51.6984L37.917 53.488C37.2169 54.1102 36.9836 55.1214 37.3726 56.0551L38.1506 58L51.0646 52.9432L50.3645 51.0762C50.0534 50.1425 49.1975 49.5981 48.1863 49.5981H45.6188L44.2186 46.2526L47.6416 44.5413C48.7307 43.9966 49.1975 42.7518 48.8085 41.6627L44.3743 29.7599C43.9075 28.5151 42.5848 27.9704 41.34 28.3594C41.34 28.3594 41.2625 28.3594 41.2625 28.4372L37.9949 29.8374L37.528 28.6705L39.3176 26.5702C40.562 25.1696 41.34 23.4583 41.5736 21.5913L43.8296 18.8684C45.3077 17.1567 44.9966 14.5896 43.2849 13.1111C42.9738 12.8779 42.6627 12.6446 42.3515 12.4889C41.4957 12.0999 40.6399 12.022 39.7065 12.2557L39.4729 11.5552C39.0839 10.3107 37.6837 9.68814 36.5168 10.155L20.1016 16.0676C18.8568 16.5345 18.2345 17.8568 18.7014 19.0238V19.1016L19.0904 20.1128C17.0676 21.0465 16.1339 23.3804 16.834 25.4032C17.3787 26.9592 18.7789 28.0483 20.4127 28.2815L24.0693 28.6705C25.5474 29.7599 27.3365 30.46 29.1261 30.6154L31.6932 30.849L32.1601 32.016C31.6154 32.3271 31.2264 32.8718 31.071 33.5719L30.5263 36.2169L11.5439 43.9187L12.0887 45.3968L22.9802 41.0405L25.6252 48.9755L11.5439 54.8103ZM48.8085 51.543L48.9643 52.0095L39.0061 55.9772L38.7728 55.5104C38.6949 55.1993 38.7728 54.8881 38.9286 54.6549L41.5736 52.1653L44.9187 51.0762H48.0306C48.4195 51.0762 48.6532 51.2315 48.8085 51.543ZM43.9075 49.6756L41.1067 50.6093L40.0955 47.6532C40.562 47.7307 40.951 47.6532 41.34 47.4196L42.6627 46.7974L43.9075 49.6756ZM41.8068 29.6042C42.1958 29.4484 42.6627 29.6042 42.8184 29.9932L43.4406 31.627L39.6287 32.8718L40.0955 34.3499L43.9075 33.105L44.8408 35.5947L41.1846 36.8391L41.6515 38.3176L45.3855 37.0728L46.3193 39.562L42.7405 40.729L43.2074 42.2074L46.8636 40.9626L47.2526 41.9738C47.4083 42.3628 47.2526 42.7518 46.8636 42.9075L40.7177 45.9415C40.562 46.0194 40.4066 46.0194 40.2509 46.0194L34.9609 45.3968L32.0822 36.7616L32.627 33.883C32.7048 33.6498 32.8602 33.4162 33.0938 33.3383L41.8068 29.6042ZM41.7289 13.8891C42.9738 14.4338 43.5964 15.9119 43.0516 17.2346C42.9738 17.4678 42.8184 17.6236 42.6627 17.8568L41.7289 19.0238C41.6515 18.2458 41.4957 17.5457 41.2625 16.7677L40.2509 13.7337C40.7956 13.6558 41.2625 13.7337 41.7289 13.8891ZM18.3899 25.0143C17.9234 23.6916 18.4678 22.2914 19.7126 21.6688L20.8017 24.3142C21.1907 25.2475 21.7354 26.1812 22.3576 26.9592L20.7238 26.8034C19.6347 26.7256 18.7014 26.0255 18.3899 25.0143ZM29.4372 29.1373C26.2475 28.8262 23.4467 26.8034 22.2797 23.7694L20.2573 18.6348C20.1016 18.2458 20.2573 17.7789 20.6463 17.6236L37.0611 11.7109C37.2948 11.6331 37.4501 11.6331 37.6837 11.7109C37.8391 11.7888 37.9949 11.9442 38.0727 12.1778L39.784 17.3124C40.7177 20.1907 40.0955 23.3026 38.1506 25.5586L35.7388 28.3594L36.4389 30.2264L33.6382 31.3934L32.8602 29.4484L29.4372 29.1373ZM24.4583 40.4179L26.2475 39.7178L28.1924 45.6304L29.6704 45.1635L27.648 39.0955L30.7599 37.8507L33.4049 45.7083L27.1033 48.3533L24.4583 40.4179Z" fill="black" fill-opacity="0.3"/>
<path d="M49.9758 23.6136V24.3915H51.5317V23.6136C51.5317 21.4354 53.2434 19.7237 55.4215 19.7237V18.1678C53.2434 18.1678 51.5317 16.4565 51.5317 14.278V13.5H49.9758V14.278C49.9758 16.4565 48.2645 18.1678 46.0859 18.1678V19.7237C48.2645 19.7237 49.9758 21.4354 49.9758 23.6136ZM50.7537 17.0787C51.2206 17.8567 51.8428 18.4793 52.6208 18.9458C51.8428 19.4126 51.2206 20.0352 50.7537 20.8132C50.2869 20.0352 49.6647 19.4126 48.8867 18.9458C49.6647 18.4793 50.2869 17.8567 50.7537 17.0787Z" fill="black" fill-opacity="0.3"/>
<path d="M15.7453 39.1729V39.9509H17.3012V39.1729C17.3012 36.9947 19.0129 35.2831 21.1911 35.2831V33.7271C19.0129 33.7271 17.3012 32.0158 17.3012 29.8373V29.0593H15.7453V29.8373C15.7453 32.0158 14.034 33.7271 11.8555 33.7271V35.2831C14.034 35.2831 15.7453 36.9947 15.7453 39.1729ZM16.5233 32.6381C16.9901 33.416 17.6124 34.0386 18.3903 34.5051C17.6124 34.972 16.9901 35.5946 16.5233 36.3725C16.0564 35.5946 15.4342 34.972 14.6562 34.5051C15.4342 34.0386 16.0564 33.416 16.5233 32.6381Z" fill="black" fill-opacity="0.3"/>
<path d="M54.6435 29.8373V29.0593H53.0876V29.8373C53.0876 32.0158 51.3763 33.7271 49.1978 33.7271V35.2831C51.3763 35.2831 53.0876 36.9947 53.0876 39.1729V39.9509H54.6435V39.1729C54.6435 36.9947 56.3552 35.2831 58.5333 35.2831V33.7271C56.3552 33.7271 54.6435 32.0158 54.6435 29.8373ZM53.8655 36.3725C53.3987 35.5946 52.7765 34.972 51.9985 34.5051C52.7765 34.0386 53.3987 33.416 53.8655 32.6381C54.3324 33.416 54.9546 34.0386 55.7326 34.5051C54.9546 34.972 54.3324 35.5946 53.8655 36.3725Z" fill="black" fill-opacity="0.3"/>
<path d="M34.6494 23.8474L35.7385 24.9364C40.0173 20.6576 36.0496 14.1228 35.8163 13.8892L34.4937 14.745C34.5715 14.745 38.0724 20.4244 34.6494 23.8474Z" fill="black" fill-opacity="0.3"/>
</g>
<defs>
<clipPath id="clip0">
<rect width="48" height="48" fill="white" transform="translate(11 10)"/>
</clipPath>
</defs>
</svg>
